<svg class="icon" viewBox="0 0 1228 1024" version="1.1" xmlns="http://www.w3.org/2000/svg"
     width="200" height="200">
  <path
    d="M1096.192 949.1456c0 40.0384-34.9184 73.5232-76.8 73.5232H55.808l136.192-608.256c0-40.1408 34.816-73.5232 76.8-73.5232h883.2c41.984 0 76.8 33.3824 76.8 73.5232l-132.608 534.7328z m-886.784-661.7088H1075.2v-73.5232c0-40.1408-34.816-73.5232-76.8-73.5232h-460.8V73.5232C537.6 33.3824 502.784 0 460.8 0H76.8C34.816 0 0 33.3824 0 73.5232v875.52l136.192-588.0832c-3.584-43.52 31.3344-73.5232 73.216-73.5232z"
    fill="#9AA9BF"></path>
</svg>
