<?xml version="1.0" standalone="no"?><!DOCTYPE svg PUBLIC "-//W3C//DTD SVG 1.1//EN" "http://www.w3.org/Graphics/SVG/1.1/DTD/svg11.dtd"><svg class="icon" width="200px" height="200.00px" viewBox="0 0 1024 1024" version="1.1" xmlns="http://www.w3.org/2000/svg"><path d="M512 512.001m-511.999 0a511.999 511.999 0 1 0 1023.998 0 511.999 511.999 0 1 0-1023.998 0Z" fill="#552C7A" /><path d="M511.998 512.001m-407.005205 0a407.005205 407.005205 0 1 0 814.01041 0 407.005205 407.005205 0 1 0-814.01041 0Z" fill="#774197" /><path d="M680.597671 382.175254c-1.167998 0-2.331995 0.02-3.495993 0.043999v-0.043999h-185.545638V329.979356c0-21.627958 4.773991-25.999949 28.389944-25.99995h66.273871c39.351923 0 47.259908-18.085965 47.259908-47.261907V111.515782a9.99998 9.99998 0 0 0-19.999961 0v145.201717c0 20.70796-1.239998 27.261947-27.259947 27.261946h-66.273871c-29.045943 0-48.389905 7.819985-48.389905 45.999911v52.193898H281.220451c-96.973811 0-175.589657 78.611846-175.589657 175.585657v41.137919c0 96.973811 78.615846 175.585657 175.589657 175.585657 43.003916 0 82.391839-15.46997 112.917779-41.135919h173.539661c30.52794 25.66595 69.915863 41.13592 112.92178 41.135919 96.971811 0 175.587657-78.611846 175.587657-175.585657V557.758911c-0.002-96.971811-78.617846-175.583657-175.589657-175.583657z" fill="#552C7A" /><path d="M886.627268 527.31497c0-96.973811-78.613846-175.587657-175.585657-175.587657-1.167998 0-2.331995 0.022-3.493993 0.044v-0.044H311.664391c-96.973811 0-175.587657 78.613846-175.587657 175.587657v41.13592h4.857991c18.517964 77.125849 87.923828 134.451737 170.729666 134.451737 43.003916 0 82.391839-15.47197 112.91978-41.13792h173.537661c30.52794 25.66595 69.913863 41.13792 112.921779 41.13792 82.803838 0 152.211703-57.325888 170.729667-134.451737h4.85599v-41.13592z" fill="#CDCCCA" /><path d="M311.664391 392.865233h395.883227v310.039394H311.664391z" fill="#E8E9EC" /><path d="M311.664391 568.45289m-175.587657 0a175.587657 175.587657 0 1 0 351.175314 0 175.587657 175.587657 0 1 0-351.175314 0Z" fill="#E8E9EC" /><path d="M311.664391 568.45289m-119.131767 0a119.131767 119.131767 0 1 0 238.263535 0 119.131767 119.131767 0 1 0-238.263535 0Z" fill="#CDCCCA" /><path d="M711.041611 568.45289m-175.585657 0a175.585657 175.585657 0 1 0 351.171314 0 175.585657 175.585657 0 1 0-351.171314 0Z" fill="#E8E9EC" /><path d="M711.041611 568.45289m-132.231741 0a132.231742 132.231742 0 1 0 264.463483 0 132.231742 132.231742 0 1 0-264.463483 0Z" fill="#CDCCCA" /><path d="M311.664391 569.006889m-96.91981 0a96.919811 96.919811 0 1 0 193.839621 0 96.919811 96.919811 0 1 0-193.839621 0Z" fill="#1669AD" /><path d="M311.664391 568.45289m-96.91981 0a96.919811 96.919811 0 1 0 193.839621 0 96.919811 96.919811 0 1 0-193.839621 0Z" fill="#1669AD" /><path d="M311.664391 575.006877m-96.91981 0a96.919811 96.919811 0 1 0 193.839621 0 96.919811 96.919811 0 1 0-193.839621 0Z" fill="#2A81C2" /><path d="M286.90644 538.108949l24.757951-42.879916 24.757952 42.879916zM336.422343 612.934803l-24.757952 42.877916-24.757951-42.877916zM349.076318 550.762924l42.879916 24.757952-42.879916 24.759952zM274.252464 600.280828l-42.877916-24.759952 42.877916-24.757952zM740.217554 510.591003c0-16.111969-13.061974-29.175943-29.175943-29.175943s-29.175943 13.063974-29.175943 29.175943v5.999988h0.621999c2.769995 13.235974 14.495972 23.177955 28.553944 23.177955 14.053973 0 25.78595-9.941981 28.553944-23.177955h0.621999v-5.999988z" fill="#1669AD" /><path d="M711.041611 516.592991m-29.175943 0a29.175943 29.175943 0 1 0 58.351886 0 29.175943 29.175943 0 1 0-58.351886 0Z" fill="#2A81C2" /><path d="M795.077447 565.452896c0-16.113969-13.061974-29.177943-29.175943-29.177943s-29.175943 13.063974-29.175943 29.177943v5.999988h0.621999c2.769995 13.235974 14.499972 23.177955 28.553944 23.177955 14.057973 0 25.78595-9.941981 28.553944-23.177955h0.621999v-5.999988z" fill="#1B9D7E" /><path d="M765.901504 571.452884m-29.175943 0a29.175943 29.175943 0 1 0 58.351886 0 29.175943 29.175943 0 1 0-58.351886 0Z" fill="#3AB49C" /><path d="M685.359661 565.452896c0-16.113969-13.061974-29.177943-29.175943-29.177943s-29.175943 13.063974-29.175943 29.177943v5.999988h0.621999c2.767995 13.235974 14.495972 23.177955 28.553944 23.177955 14.053973 0 25.78595-9.941981 28.553945-23.177955h0.621998v-5.999988z" fill="#BE3D27" /><path d="M656.183718 571.452884m-29.175943 0a29.175943 29.175943 0 1 0 58.351886 0 29.175943 29.175943 0 1 0-58.351886 0Z" fill="#E65439" /><path d="M740.217554 620.314788c0-16.117969-13.061974-29.179943-29.175943-29.179943s-29.175943 13.061974-29.175943 29.179943v5.999989h0.621999c2.769995 13.229974 14.499972 23.173955 28.553944 23.173954s25.78595-9.943981 28.553944-23.173954h0.621999v-5.999989z" fill="#DDAE2A" /><path d="M711.041611 626.312777m-29.175943 0a29.175943 29.175943 0 1 0 58.351886 0 29.175943 29.175943 0 1 0-58.351886 0Z" fill="#EDC849" /><path d="M492.982037 632.158765h-48.317905a5.665989 5.665989 0 0 0-5.663989 5.665989v5.999989h59.645883v-5.999989a5.665989 5.665989 0 0 0-5.663989-5.665989z" fill="#474747" /><path d="M498.646026 643.824743a5.667989 5.667989 0 0 1-5.663989 5.665988h-48.317905a5.665989 5.665989 0 1 1 0-11.331977h48.317905a5.665989 5.665989 0 0 1 5.663989 5.665989z" fill="#323232" /><path d="M574.547878 632.158765h-48.319906a5.665989 5.665989 0 0 0-5.663989 5.665989v5.999989h59.647884v-5.999989a5.665989 5.665989 0 0 0-5.663989-5.665989z" fill="#474747" /><path d="M580.211867 643.824743a5.667989 5.667989 0 0 1-5.663989 5.665988h-48.319906a5.665989 5.665989 0 1 1 0-11.331977h48.319906a5.665989 5.665989 0 0 1 5.663989 5.665989zM512 382.533253a9.99998 9.99998 0 0 1-9.99998-9.999981v-72.999857c0-38.175925 19.347962-45.99991 48.389905-45.99991h66.273871c26.019949 0 27.259947-6.549987 27.259946-27.259947v-145.199716c0-5.523989 4.473991-9.99998 9.999981-9.999981a9.99998 9.99998 0 0 1 9.99998 9.999981v145.199716c0 29.175943-7.905985 47.259908-47.259907 47.259908h-66.273871c-23.615954 0-28.389945 4.373991-28.389945 25.999949v72.999857a9.99998 9.99998 0 0 1-9.99998 9.999981z" fill="#323232" /></svg>