<?xml version="1.0" standalone="no"?><!DOCTYPE svg PUBLIC "-//W3C//DTD SVG 1.1//EN" "http://www.w3.org/Graphics/SVG/1.1/DTD/svg11.dtd"><svg class="icon" width="200px" height="200.00px" viewBox="0 0 1024 1024" version="1.1" xmlns="http://www.w3.org/2000/svg"><path d="M613.1 662.8h-203c-73.7 0-133.5-59.8-133.5-133.5s59.8-133.5 133.5-133.5h203c73.7 0 133.5 59.8 133.5 133.5s-59.8 133.5-133.5 133.5z" fill="#FFD45A" /><path d="M642.1 299.8H529.6v-50.7c0-9.9-8.1-18-18-18s-18 8.1-18 18v50.7H381.1c-126.5 0-229.5 103-229.5 229.5s103 229.5 229.5 229.5h261c126.5 0 229.5-103 229.5-229.5S768.7 299.8 642.1 299.8z m0 423h-261c-106.7 0-193.5-86.8-193.5-193.5s86.8-193.5 193.5-193.5h261c106.7 0 193.5 86.8 193.5 193.5s-86.8 193.5-193.5 193.5z" fill="#593A25" /><path d="M430.7 511.3H397v-33.8c0-9.9-8.1-18-18-18s-18 8.1-18 18v33.8h-33.8c-9.9 0-18 8.1-18 18s8.1 18 18 18H361V581c0 9.9 8.1 18 18 18s18-8.1 18-18v-33.8h33.8c9.9 0 18-8.1 18-18s-8.1-17.9-18.1-17.9z" fill="#593A25" /><path d="M653.5 482.4m-18 0a18 18 0 1 0 36 0 18 18 0 1 0-36 0Z" fill="#593A25" /><path d="M653.5 576.1m-18 0a18 18 0 1 0 36 0 18 18 0 1 0-36 0Z" fill="#593A25" /><path d="M700.2 529.3m-18 0a18 18 0 1 0 36 0 18 18 0 1 0-36 0Z" fill="#593A25" /><path d="M606.7 529.3m-18 0a18 18 0 1 0 36 0 18 18 0 1 0-36 0Z" fill="#593A25" /></svg>