<?xml version="1.0" standalone="no"?><!DOCTYPE svg PUBLIC "-//W3C//DTD SVG 1.1//EN" "http://www.w3.org/Graphics/SVG/1.1/DTD/svg11.dtd"><svg class="icon" width="200px" height="200.00px" viewBox="0 0 1024 1024" version="1.1" xmlns="http://www.w3.org/2000/svg"><path d="M540 408.6H385.6c-125.5 0-228.2 102.7-228.2 228.2v29.3c0 125.5 102.7 228.2 228.2 228.2h342.2c125.5 0 228.2-102.7 228.2-228.2v-29.3c0-125.5-102.7-228.2-228.2-228.2" fill="#009FFF" /><path d="M658.5 912.3H316.3c-66 0-128.3-25.9-175.3-72.9-47-47-72.9-109.3-72.9-175.3v-29.3c0-66 25.9-128.3 72.9-175.3 47-47 109.3-72.9 175.3-72.9h152.1l-0.7-157c0-11 8.9-20 19.9-20.1h0.1c11 0 19.9 8.9 20 19.9l0.7 159.3c0 10.1-3.9 19.6-11 26.8-7.1 7.2-16.6 11.1-26.7 11.1H316.3C201.4 426.6 108 520 108 634.8v29.3c0 114.8 93.4 208.2 208.2 208.2h342.2c114.8 0 208.2-93.4 208.2-208.2v-29.3c0-114.8-93.4-208.2-208.2-208.2-11 0-20-9-20-20s9-20 20-20c66 0 128.3 25.9 175.3 72.9 47 47 72.9 109.3 72.9 175.3v29.3c0 66-25.9 128.3-72.9 175.3-46.9 47-109.2 72.9-175.2 72.9zM468.4 388.9z"  /><path d="M428.1 660H213c-11 0-20-9-20-20s9-20 20-20h215c11 0 20 9 20 20s-8.9 20-19.9 20z" fill="#FFFFFF" /><path d="M319 767.8c-11.1-0.1-20.1-9-20-20.1l1-214.6c0.1-11 9-19.9 20-19.9h0.1c11 0.1 20 9 19.9 20.1l-1 214.6c0 11-9 19.9-20 19.9z" fill="#FFFFFF" /><path d="M576 640.3m-28.4 0a28.4 28.4 0 1 0 56.8 0 28.4 28.4 0 1 0-56.8 0Z" fill="#FFFFFF" /><path d="M717 640.3m-28.4 0a28.4 28.4 0 1 0 56.8 0 28.4 28.4 0 1 0-56.8 0Z" fill="#FFFFFF" /><path d="M160.4 265.2m-27.2 0a27.2 27.2 0 1 0 54.4 0 27.2 27.2 0 1 0-54.4 0Z" fill="#FF7801" /><path d="M219.2 218m-17.7 0a17.7 17.7 0 1 0 35.4 0 17.7 17.7 0 1 0-35.4 0Z" fill="#FF7801" /><path d="M854.5 266.2H750.9c-11 0-20-9-20-20s9-20 20-20h103.7c11 0 20 9 20 20s-9 20-20.1 20z" fill="#FF7801" /><path d="M803.1 320.8c-11 0-20-9-20-20V194c0-11 9-20 20-20s20 9 20 20v106.8c0 11.1-9 20-20 20z" fill="#FF7801" /></svg>