<?xml version="1.0" standalone="no"?><!DOCTYPE svg PUBLIC "-//W3C//DTD SVG 1.1//EN" "http://www.w3.org/Graphics/SVG/1.1/DTD/svg11.dtd"><svg t="1732549371395" class="icon" viewBox="0 0 1083 1024" version="1.1" xmlns="http://www.w3.org/2000/svg" p-id="7618" xmlns:xlink="http://www.w3.org/1999/xlink" width="211.5234375" height="200"><path d="M435.6 767.116a259.71 259.71 0 1 0 197.441-480.432 259.71 259.71 0 1 0-197.44 480.432z" fill="#E9EAEB" p-id="7619"></path><path d="M615.884 474.899h-4.452L195.896 356.174c-5.937-1.484-8.905-5.936-10.389-11.873-1.484-5.936 1.484-11.872 5.936-14.84l267.13-192.928c4.453-2.968 8.905-2.968 13.357-2.968L887.467 252.29c5.936 1.484 8.904 5.936 10.388 11.872 1.484 5.937-1.484 11.873-5.936 14.84L624.789 471.93c-2.969 1.484-5.937 2.969-8.905 2.969zM234.481 335.397L614.4 443.733l235.965-170.666L470.446 164.73 234.481 335.397z m74.93 323.673l44.492-32.16 17.393 24.042-44.492 32.175z m92.769-29.83l-17.809-23.744 74.203-53.426c2.968-2.969 8.904-2.969 13.356-2.969l89.044 25.23-7.42 28.197-81.624-23.745-69.75 50.458z m179.942-17.14l8.162-28.539 74.188 21.207-8.162 28.539z m104.24 29.903l8.147-28.538 59.927 17.126-8.163 28.539z" fill="#2A5082" p-id="7620"></path><path d="M615.884 890.435h-4.452L195.896 771.71c-5.937-1.484-8.905-5.936-10.389-11.872-1.484-5.937 1.484-11.873 5.936-14.84l89.044-63.815 17.809 23.745-63.815 46.005L614.4 859.27l235.965-170.667-74.203-20.777 7.42-28.197 103.885 29.681c5.936 1.484 8.904 5.936 10.388 11.873 1.484 5.936-1.484 11.872-5.936 14.84l-267.13 192.928c-2.969 0-5.937 1.484-8.905 1.484z" fill="#2A5082" p-id="7621"></path><path d="M185.507 341.333h29.681V756.87h-29.68z m415.536 118.725h29.682v415.536h-29.682z m-148.405 14.84h29.68v89.044h-29.68z m0-103.884h29.68v74.203h-29.68z m0-89.043h29.68v59.362h-29.68z m0-133.565h29.68V252.29h-29.68zM868.174 267.13h29.681v415.537h-29.681z" fill="#2A5082" p-id="7622"></path><path d="M660.406 875.594c0 25.23-19.293 44.522-44.522 44.522s-44.522-19.293-44.522-44.522 19.293-44.522 44.522-44.522 44.522 19.293 44.522 44.522z" fill="#A3D4FF" p-id="7623"></path><path d="M615.884 934.957c-32.65 0-59.362-26.714-59.362-59.363s26.713-59.362 59.362-59.362 59.362 26.713 59.362 59.362-26.713 59.363-59.362 59.363z m0-89.044c-16.325 0-29.681 13.357-29.681 29.681s13.356 29.681 29.681 29.681 29.681-13.356 29.681-29.68-13.356-29.682-29.68-29.682z" fill="#2A5082" p-id="7624"></path><path d="M927.536 682.667c0 25.229-19.293 44.521-44.522 44.521s-44.521-19.292-44.521-44.521 19.293-44.522 44.521-44.522 44.522 19.293 44.522 44.522z" fill="#A3D4FF" p-id="7625"></path><path d="M883.014 742.029c-32.649 0-59.362-26.713-59.362-59.362s26.713-59.363 59.362-59.363 59.363 26.713 59.363 59.363-26.713 59.362-59.363 59.362z m0-89.043c-16.324 0-29.68 13.356-29.68 29.68s13.356 29.682 29.68 29.682 29.682-13.357 29.682-29.681-13.357-29.681-29.682-29.681z" fill="#2A5082" p-id="7626"></path><path d="M512 563.942c0 25.229-19.293 44.522-44.522 44.522s-44.521-19.293-44.521-44.522 19.292-44.522 44.521-44.522S512 538.713 512 563.942z" fill="#A3D4FF" p-id="7627"></path><path d="M467.478 623.304c-32.649 0-59.362-26.713-59.362-59.362s26.713-59.362 59.362-59.362 59.363 26.713 59.363 59.362-26.713 59.362-59.363 59.362z m0-89.043c-16.324 0-29.68 13.356-29.68 29.681s13.356 29.681 29.68 29.681 29.681-13.356 29.681-29.681-13.356-29.681-29.68-29.681z" fill="#2A5082" p-id="7628"></path><path d="M244.87 756.87c0 25.229-19.293 44.521-44.522 44.521s-44.522-19.292-44.522-44.521 19.293-44.522 44.522-44.522 44.522 19.293 44.522 44.522z" fill="#A3D4FF" p-id="7629"></path><path d="M200.348 816.232c-32.65 0-59.362-26.713-59.362-59.362s26.713-59.363 59.362-59.363 59.362 26.713 59.362 59.363-26.713 59.362-59.362 59.362z m0-89.044c-16.325 0-29.681 13.357-29.681 29.682s13.356 29.68 29.68 29.68 29.682-13.356 29.682-29.68-13.357-29.682-29.681-29.682z" fill="#2A5082" p-id="7630"></path><path d="M244.87 341.333c0 25.23-19.293 44.522-44.522 44.522s-44.522-19.293-44.522-44.522 19.293-44.521 44.522-44.521 44.522 19.292 44.522 44.521z" fill="#A3D4FF" p-id="7631"></path><path d="M200.348 400.696c-32.65 0-59.362-26.713-59.362-59.363s26.713-59.362 59.362-59.362 59.362 26.713 59.362 59.362c0 16.325-5.936 31.166-17.809 41.554-10.388 11.872-25.229 17.809-41.553 17.809z m0-89.044c-16.325 0-29.681 13.357-29.681 29.681s13.356 29.681 29.68 29.681c7.421 0 14.841-2.968 20.778-8.904 5.936-5.936 8.904-13.356 8.904-20.777 0-16.324-13.357-29.68-29.681-29.68z" fill="#2A5082" p-id="7632"></path><path d="M512 148.406c0 25.229-19.293 44.522-44.522 44.522s-44.521-19.293-44.521-44.522 19.292-44.522 44.521-44.522S512 123.177 512 148.406z" fill="#A3D4FF" p-id="7633"></path><path d="M467.478 207.768c-16.324 0-31.165-5.936-41.553-17.809-11.873-11.872-17.81-26.713-17.81-41.553 0-32.65 26.714-59.363 59.363-59.363s59.363 26.714 59.363 59.363-26.713 59.362-59.363 59.362z m0-89.043c-16.324 0-29.68 13.356-29.68 29.68 0 7.421 2.967 14.841 8.903 20.778 5.937 5.936 13.357 8.904 20.777 8.904 16.325 0 29.681-13.357 29.681-29.681s-13.356-29.681-29.68-29.681z" fill="#2A5082" p-id="7634"></path><path d="M927.536 267.13c0 25.23-19.293 44.522-44.522 44.522s-44.521-19.293-44.521-44.522 19.293-44.521 44.521-44.521 44.522 19.292 44.522 44.521z" fill="#A3D4FF" p-id="7635"></path><path d="M883.014 326.493c-32.649 0-59.362-26.713-59.362-59.363s26.713-59.362 59.362-59.362 59.363 26.713 59.363 59.362-26.713 59.363-59.363 59.363z m0-89.044c-16.324 0-29.68 13.357-29.68 29.681s13.356 29.682 29.68 29.682 29.682-13.357 29.682-29.682-13.357-29.68-29.682-29.68z" fill="#2A5082" p-id="7636"></path><path d="M660.406 460.058c0 25.229-19.293 44.522-44.522 44.522s-44.522-19.293-44.522-44.522 19.293-44.522 44.522-44.522 44.522 19.293 44.522 44.522z" fill="#A3D4FF" p-id="7637"></path><path d="M615.884 519.42c-32.65 0-59.362-26.713-59.362-59.362s26.713-59.362 59.362-59.362 59.362 26.713 59.362 59.362-26.713 59.362-59.362 59.362z m0-89.043c-16.325 0-29.681 13.356-29.681 29.681s13.356 29.681 29.681 29.681 29.681-13.356 29.681-29.681-13.356-29.681-29.68-29.681z" fill="#2A5082" p-id="7638"></path></svg>