<?xml version="1.0" standalone="no"?><!DOCTYPE svg PUBLIC "-//W3C//DTD SVG 1.1//EN" "http://www.w3.org/Graphics/SVG/1.1/DTD/svg11.dtd"><svg t="1757182358924" class="icon" viewBox="0 0 1024 1024" version="1.1" xmlns="http://www.w3.org/2000/svg" p-id="4729" xmlns:xlink="http://www.w3.org/1999/xlink" width="200" height="200"><path d="M372.48 75.626667c125.333333-40.213333 267.946667-24.106667 379.946667 45.653333 133.546667 80.533333 222.4 233.706667 217.813333 390.613333 2.88 88.213333-23.573333 176.106667-71.573333 249.92-82.133333 128.853333-232.64 213.44-386.453334 208.426667-158.613333 4.373333-315.733333-85.866667-393.28-223.893333l23.04-11.52C232.533333 896.426667 436.053333 981.013333 614.933333 934.4c131.946667-31.68 247.68-128.106667 298.453334-254.506667 46.826667-110.186667 45.76-240.96-8.32-348.373333-2.666667-5.653333-5.44-11.306667-8.106667-16.96-39.68-85.12-112.64-152.106667-196.373333-192.96-125.12-59.946667-279.786667-56.746667-400.32 13.226667-71.68 39.466667-133.866667 99.093333-168.426667 174.08 0.64 5.44 1.813333 16.213333 2.346667 21.653333l0.32 2.88c-6.08 2.88-18.453333 8.853333-24.64 11.84-7.253333-4.16-14.4-8.426667-21.546667-12.693333C143.68 213.333333 245.653333 114.88 372.48 75.626667z" fill="#EDAA53" p-id="4730"></path><path d="M77.12 369.706667c5.44 9.92 11.2 19.626667 17.493333 29.013333-14.72 61.546667-18.773333 125.546667-8.746666 188.16l2.24 12.266667c13.76 2.56 27.626667 4.693333 41.493333 6.72-19.2 12.053333-38.4 24.426667-55.573333 39.36-28.16-89.066667-26.666667-187.093333 3.093333-275.52zM91.946667 694.293333c16-1.92 31.893333-4.266667 47.893333-6.613333-9.813333 17.173333-20.586667 34.346667-24 54.293333l-3.84 2.026667c-6.826667-16.426667-13.12-33.28-20.053333-49.706667z" fill="#EDAA53" p-id="4731"></path><path d="M300.266667 134.826667c120.533333-69.973333 275.2-73.173333 400.32-13.226667 83.733333 40.853333 156.693333 107.84 196.373333 192.96-30.933333-12.586667-63.36-20.48-96.426667-24.64 0.746667-8.533333 2.133333-25.493333 2.88-34.026667-115.626667-9.813333-231.253333-19.626667-347.2-24.533333 3.733333 38.613333 8.213333 79.253333 31.893334 111.466667 20.906667 33.493333 56.426667 52.586667 90.346666 70.293333-43.2 52.8-75.946667 114.453333-89.173333 181.76-3.413333 13.866667-6.933333 27.733333-10.453333 41.706667-17.386667-19.52-36.48-37.333333-57.493334-52.8 13.973333-7.573333 43.306667-12.48 20.373334-30.186667-22.4-23.466667-53.226667-35.2-83.52-44.906667 14.506667-4.48 28.906667-9.173333 43.306666-13.866666-25.066667-44.266667-44.48-91.413333-56.533333-140.8-7.786667 8-15.573333 15.893333-23.253333 23.893333-1.28-3.626667-3.733333-10.773333-4.906667-14.4-6.08-33.92 10.56-82.133333-20.16-105.706667-9.6-7.253333-19.626667-13.653333-29.653333-19.946666 10.986667-19.733333 18.346667-41.066667 25.28-62.293334 3.84-5.973333 7.68-11.84 11.52-17.706666-0.853333-5.76-2.666667-17.28-3.52-23.04m214.613333 1.92c14.613333 34.986667 36.906667 72.106667 77.12 80.426666 21.333333 3.093333 57.706667 15.893333 63.68-14.506666-11.413333-29.12-55.146667-13.866667-75.413333-34.453334-13.013333-14.186667-23.36-30.72-36.053334-45.12-7.36 3.413333-21.973333 10.24-29.333333 13.653334z" fill="#FDE777" p-id="4732"></path><path d="M734.933333 388.16c33.6-23.786667 47.68-84.373333 97.066667-75.413333 25.173333 2.56 49.066667 11.413333 73.066667 18.773333 54.08 107.413333 55.146667 238.186667 8.32 348.373333-37.12-2.666667-73.066667 7.786667-108.266667 18.026667 12.373333-19.413333 18.88-45.013333 2.133333-64.106667-35.306667-47.36-91.946667-74.56-149.44-83.733333-7.786667-24.426667-12.373333-50.666667-27.413333-72-11.413333-22.4-39.68-11.626667-59.52-14.72 12.586667-15.253333 25.706667-29.866667 38.826667-44.586667 26.773333-1.28 53.546667-2.986667 80.106666-6.826666-8.106667 33.493333-18.88 66.666667-22.186666 101.12 1.706667 17.386667 25.173333 18.666667 36.266666 28.266666 18.56-49.066667 31.36-100.48 31.04-153.173333m56.426667 19.2c-23.573333 40.32-45.973333 82.133333-60.586667 126.72 7.893333 16.213333 20.16 20.586667 36.693334 13.013333 23.466667-38.72 45.333333-79.253333 60.693333-121.92 9.6-21.013333-29.226667-38.826667-36.8-17.813333m75.626667 52.053333c-26.56 30.826667-54.08 61.546667-76.053334 95.893334 0.213333 5.013333 0.533333 14.826667 0.64 19.84 20.586667 23.146667 42.453333-12.053333 56-26.133334 20.48-31.36 63.36-55.786667 55.36-98.24-11.626667 2.986667-27.52-2.133333-35.946666 8.64m-44.266667 157.866667l18.773333 32c31.573333-15.893333 60.373333-36.8 84.8-62.613333-9.706667-10.026667-19.306667-20.053333-29.013333-30.08a989.738667 989.738667 0 0 1-74.56 60.693333zM546.773333 742.08c-61.76-85.546667-27.626667-197.653333 24.106667-278.72 0.106667 35.946667 16.746667 68.16 25.173333 102.293333 2.773333 35.2-8.533333 70.08-4.373333 105.28 10.56 27.946667 35.946667 46.506667 57.386667 65.813334-34.133333 0.96-68.16 3.413333-102.293334 5.333333z" fill="#FDE777" p-id="4733"></path><path d="M514.88 136.746667c7.36-3.413333 21.973333-10.24 29.333333-13.653334 12.693333 14.4 23.04 30.933333 36.053334 45.12 20.266667 20.586667 64 5.333333 75.413333 34.453334-5.973333 30.4-42.346667 17.6-63.68 14.506666-40.213333-8.32-62.506667-45.44-77.12-80.426666zM183.146667 248.746667c31.573333-30.826667 75.626667-44.373333 109.12-73.173334-6.933333 21.226667-14.293333 42.56-25.28 62.293334-26.773333 10.026667-55.36 13.653333-83.84 10.88zM456.213333 231.36c115.946667 4.906667 231.573333 14.72 347.2 24.533333-0.746667 8.533333-2.133333 25.493333-2.88 34.026667 33.066667 4.16 65.493333 12.053333 96.426667 24.64 2.666667 5.653333 5.44 11.306667 8.106667 16.96-24-7.36-47.893333-16.213333-73.066667-18.773333-49.386667-8.96-63.466667 51.626667-97.066667 75.413333-14.613333 8.746667-29.653333 16.746667-45.12 23.786667-26.56 3.84-53.333333 5.546667-80.106666 6.826666-13.12 14.72-26.24 29.333333-38.826667 44.586667-51.733333 81.066667-85.866667 193.173333-24.106667 278.72-2.986667 0-9.066667 0.106667-12.053333 0.106667-41.173333-37.333333-47.786667-94.933333-45.44-147.306667 13.226667-67.306667 45.973333-128.96 89.173333-181.76-33.92-17.706667-69.44-36.8-90.346666-70.293333-23.68-32.213333-28.16-72.853333-31.893334-111.466667m13.226667 12.373333c4.693333 31.146667 10.026667 63.573333 28.8 89.706667 37.866667 59.52 117.12 84.586667 183.68 63.573333 58.666667-16.426667 99.52-70.613333 110.293333-129.173333-107.52-8.853333-215.04-18.773333-322.773333-24.106667zM79.786667 352.533333l14.506666 1.706667-3.306666 3.52-4.8 3.626667c16.533333 32.746667 45.013333 60.586667 81.493333 69.12 56.64 16.533333 125.013333-17.6 136-77.973334 1.386667 0.32 4.373333 0.853333 5.76 1.173334l3.2 7.04c-13.546667 63.573333-88.213333 101.226667-148.48 81.813333-26.666667-8.106667-49.066667-25.6-69.546667-43.84-6.293333-9.386667-12.053333-19.093333-17.493333-29.013333 0.64-4.266667 2.026667-12.8 2.666667-17.173334zM282.026667 556.906667c18.773333-25.28 45.226667-42.24 76.16-48.213334 30.293333 9.706667 61.12 21.44 83.52 44.906667-1.813333 2.453333-5.546667 7.36-7.466667 9.813333-33.6-9.066667-64-41.28-101.44-26.88-22.506667 5.653333-30.506667 35.093333-15.253333 52.16 15.68 15.146667 36.906667 22.4 56 32.426667-19.093333 14.4-65.173333 26.346667-49.813334 57.28 28.266667 12.373333 57.813333-9.386667 85.44-15.466667-15.786667 44.693333-68.8 44.586667-107.093333 33.92-2.773333-26.773333 2.026667-52.8 18.666667-74.24-16.426667-19.733333-29.013333-42.026667-38.72-65.706666z" fill="#98431A" opacity=".97" p-id="4734"></path><path d="M131.84 308.906667c34.56-74.986667 96.746667-134.613333 168.426667-174.08 0.853333 5.76 2.666667 17.28 3.52 23.04-3.84 5.866667-7.68 11.733333-11.52 17.706666-33.493333 28.8-77.546667 42.346667-109.12 73.173334 28.48 2.773333 57.066667-0.853333 83.84-10.88 10.026667 6.293333 20.053333 12.693333 29.653333 19.946666l0.426667 5.866667c-52.48 26.133333-108.373333 45.333333-162.88 66.88-0.533333-5.44-1.706667-16.213333-2.346667-21.653333zM321.706667 377.92c7.68-8 15.466667-15.893333 23.253333-23.893333 12.053333 49.386667 31.466667 96.533333 56.533333 140.8-14.4 4.693333-28.8 9.386667-43.306666 13.866666-30.933333 5.973333-57.386667 22.933333-76.16 48.213334-9.386667-4.373333-18.666667-8.64-27.946667-13.013334-4.8 2.346667-14.293333 6.933333-19.093333 9.28-17.066667-9.28-34.24-18.453333-51.413334-27.626666l3.84 29.76c-24.426667-9.706667-49.066667-19.2-74.026666-27.733334 15.36 13.973333 31.04 27.52 46.72 41.066667-24.853333 5.76-49.6 11.84-74.24 18.24-10.026667-62.613333-5.973333-126.613333 8.746666-188.16 20.48 18.24 42.88 35.733333 69.546667 43.84 60.266667 19.413333 134.933333-18.24 148.48-81.813333l4.16 2.773333c1.173333 3.626667 3.626667 10.773333 4.906667 14.4zM332.8 536.533333c37.44-14.4 67.84 17.813333 101.44 26.88 1.92-2.453333 5.653333-7.36 7.466667-9.813333 22.933333 17.706667-6.4 22.613333-20.373334 30.186667 21.013333 15.466667 40.106667 33.28 57.493334 52.8 3.52-13.973333 7.04-27.84 10.453333-41.706667-2.346667 52.373333 4.266667 109.973333 45.44 147.306667 2.986667 0 9.066667-0.106667 12.053333-0.106667 34.133333-1.92 68.16-4.373333 102.293334-5.333333 23.893333 9.706667 50.026667 20.8 76.16 13.76 31.466667-8.746667 56.746667-30.72 79.893333-52.586667 35.2-10.24 71.146667-20.693333 108.266667-18.026667-50.773333 126.4-166.506667 222.826667-298.453334 254.506667-178.88 46.613333-382.4-37.973333-472.96-199.573333 28.8-13.226667 60.586667-16.746667 91.946667-16.213334l32-21.76h36.16c38.293333 10.666667 91.306667 10.773333 107.093333-33.92-27.626667 6.08-57.173333 27.84-85.44 15.466667-15.36-30.933333 30.72-42.88 49.813334-57.28-19.093333-10.026667-40.32-17.28-56-32.426667-15.253333-17.066667-7.253333-46.506667 15.253333-52.16zM82.133333 652.693333c15.68-2.133333 31.253333-4.266667 46.826667-6.613333-14.72 10.773333-29.546667 21.44-43.84 32.853333l-7.573333-25.386666 4.586666-0.853334z" fill="#FFCE74" p-id="4735"></path><path d="M469.44 243.733333c107.733333 5.333333 215.253333 15.253333 322.773333 24.106667-10.773333 58.56-51.626667 112.746667-110.293333 129.173333-66.56 21.013333-145.813333-4.053333-183.68-63.573333-18.773333-26.133333-24.106667-58.56-28.8-89.706667zM102.613333 350.08c66.986667-28.586667 134.72-55.466667 202.346667-82.773333 3.306667 28.373333 12.266667 58.133333 4.48 86.4-1.386667-0.32-4.373333-0.853333-5.76-1.173334-10.986667 60.373333-79.36 94.506667-136 77.973334-36.48-8.533333-64.96-36.373333-81.493333-69.12l4.8-3.626667 3.306666-3.52 8.32-4.16z" fill="#FFFFFF" p-id="4736"></path><path d="M689.813333 411.946667c15.466667-7.04 30.506667-15.04 45.12-23.786667 0.32 52.693333-12.48 104.106667-31.04 153.173333-11.093333-9.6-34.56-10.88-36.266666-28.266666 3.306667-34.453333 14.08-67.626667 22.186666-101.12zM791.36 407.36c7.573333-21.013333 46.4-3.2 36.8 17.813333-15.36 42.666667-37.226667 83.2-60.693333 121.92-16.533333 7.573333-28.8 3.2-36.693334-13.013333 14.613333-44.586667 37.013333-86.4 60.586667-126.72zM866.986667 459.413333c8.426667-10.773333 24.32-5.653333 35.946666-8.64 8 42.453333-34.88 66.88-55.36 98.24-13.546667 14.08-35.413333 49.28-56 26.133334-0.106667-5.013333-0.426667-14.826667-0.64-19.84 21.973333-34.346667 49.493333-65.066667 76.053334-95.893334z" fill="#FF5927" p-id="4737"></path><path d="M570.88 463.36c19.84 3.093333 48.106667-7.68 59.52 14.72 15.04 21.333333 19.626667 47.573333 27.413333 72 57.493333 9.173333 114.133333 36.373333 149.44 83.733333 16.746667 19.093333 10.24 44.693333-2.133333 64.106667-23.146667 21.866667-48.426667 43.84-79.893333 52.586667-26.133333 7.04-52.266667-4.053333-76.16-13.76-21.44-19.306667-46.826667-37.866667-57.386667-65.813334-4.16-35.2 7.146667-70.08 4.373333-105.28-8.426667-34.133333-25.066667-66.346667-25.173333-102.293333zM822.72 617.28c25.813333-18.986667 50.666667-39.253333 74.56-60.693333 9.706667 10.026667 19.306667 20.053333 29.013333 30.08-24.426667 25.813333-53.226667 46.72-84.8 62.613333l-18.773333-32z" fill="#FF5927" p-id="4738"></path><path d="M113.386667 527.573333c24.96 8.533333 49.6 18.026667 74.026666 27.733334l-3.84-29.76c17.173333 9.173333 34.346667 18.346667 51.413334 27.626666 4.8-2.346667 14.293333-6.933333 19.093333-9.28 9.28 4.373333 18.56 8.64 27.946667 13.013334 9.706667 23.68 22.293333 45.973333 38.72 65.706666-16.64 21.44-21.44 47.466667-18.666667 74.24h-36.16l-32 21.76c-31.36-0.533333-63.146667 2.986667-91.946667 16.213334l-23.04 11.52-3.093333-4.373334c3.413333-19.946667 14.186667-37.12 24-54.293333-16 2.346667-31.893333 4.693333-47.893333 6.613333-6.186667 0.533333-18.56 1.493333-24.746667 2.026667 4.48-4.373333 13.44-13.013333 17.92-17.386667 14.293333-11.413333 29.12-22.08 43.84-32.853333-15.573333 2.346667-31.146667 4.48-46.826667 6.613333l-17.92 1.813334 9.813334-9.28c17.173333-14.933333 36.373333-27.306667 55.573333-39.36-13.866667-2.026667-27.733333-4.16-41.493333-6.72l-2.24-12.266667c24.64-6.4 49.386667-12.48 74.24-18.24-15.68-13.546667-31.36-27.093333-46.72-41.066667z" fill="#4CA3E7" p-id="4739"></path></svg>